<mxfile host="Electron" modified="2024-01-14T12:22:16.240Z" agent="Mozilla/5.0 (Windows NT 10.0; Win64; x64) AppleWebKit/537.36 (KHTML, like Gecko) draw.io/22.1.16 Chrome/120.0.6099.109 Electron/28.1.0 Safari/537.36" etag="Zy10DrHNkwJG4p466WRC" version="22.1.16" type="device">
  <diagram name="PÃ¡gina-1" id="5BSTz9O9YKwhlVoyjzCm">
    <mxGraphModel dx="2314" dy="836" grid="1" gridSize="10" guides="1" tooltips="1" connect="1" arrows="1" fold="1" page="1" pageScale="1" pageWidth="1800" pageHeight="600" math="0" shadow="0">
      <root>
        <mxCell id="0" />
        <mxCell id="1" parent="0" />
        <mxCell id="8BaX_PmstEO3U_bqRlHM-3" value="AWS Cloud" style="sketch=0;outlineConnect=0;gradientColor=none;html=1;whiteSpace=wrap;fontSize=12;fontStyle=0;shape=mxgraph.aws4.group;grIcon=mxgraph.aws4.group_aws_cloud;strokeColor=#AAB7B8;fillColor=none;verticalAlign=top;align=left;spacingLeft=30;fontColor=#AAB7B8;dashed=0;" parent="1" vertex="1">
          <mxGeometry x="212" y="10" width="1078" height="583" as="geometry" />
        </mxCell>
        <mxCell id="8McWWTVjcUAGM2Oe49yg-8" value="" style="rounded=0;whiteSpace=wrap;html=1;fillColor=#d5e8d4;strokeColor=#82b366;" parent="1" vertex="1">
          <mxGeometry x="480" y="40" width="550" height="220" as="geometry" />
        </mxCell>
        <mxCell id="fj_ODEjt7gec0no8fvGJ-1" style="edgeStyle=orthogonalEdgeStyle;rounded=0;orthogonalLoop=1;jettySize=auto;html=1;" parent="1" source="8BaX_PmstEO3U_bqRlHM-4" target="8BaX_PmstEO3U_bqRlHM-9" edge="1">
          <mxGeometry relative="1" as="geometry">
            <Array as="points">
              <mxPoint x="180" y="180" />
              <mxPoint x="180" y="180" />
            </Array>
          </mxGeometry>
        </mxCell>
        <mxCell id="8BaX_PmstEO3U_bqRlHM-4" value="" style="shape=image;verticalLabelPosition=bottom;labelBackgroundColor=default;verticalAlign=top;aspect=fixed;imageAspect=0;image=https://res.cloudinary.com/practicaldev/image/fetch/s--rpuQFnDS--/c_fill,f_auto,fl_progressive,h_320,q_auto,w_320/https://dev-to-uploads.s3.amazonaws.com/uploads/organization/profile_image/3915/2fd3fc80-a90d-4728-95fc-61806aba1cf3.png;" parent="1" vertex="1">
          <mxGeometry x="1" y="128" width="120" height="120" as="geometry" />
        </mxCell>
        <mxCell id="fj_ODEjt7gec0no8fvGJ-2" style="edgeStyle=orthogonalEdgeStyle;rounded=0;orthogonalLoop=1;jettySize=auto;html=1;" parent="1" source="8BaX_PmstEO3U_bqRlHM-6" target="8BaX_PmstEO3U_bqRlHM-9" edge="1">
          <mxGeometry relative="1" as="geometry">
            <Array as="points">
              <mxPoint x="170" y="328" />
              <mxPoint x="170" y="180" />
            </Array>
          </mxGeometry>
        </mxCell>
        <mxCell id="8BaX_PmstEO3U_bqRlHM-6" value="" style="shape=image;verticalLabelPosition=bottom;labelBackgroundColor=default;verticalAlign=top;aspect=fixed;imageAspect=0;image=data:image/png,iVBORw0KGgoAAAANSUhEUgAAAOEAAADhCAMAAAAJbSJIAAAAvVBMVEUAAAD////tLjXz8/PxLzTh4eG1JSsAAgDExMQdHR29vb3iLTNwcHD6+vphYWEcBgmdISVFRUXp6en09PQmJiZXV1eioqJ5eXlsbGzKysrt7e2qqqqUlJS0tLSDg4MzMzNOTk4MDAw6OjqKiorY2NgYGBgjIyOcnJxkZGQuLi48DhHS0tKSkpKIiIg+Pj5JSUmpIijaLTTJKjBYFhqJHiFkFxx7GSKVHiYUBQhIEBRhFh0fBwhxGh8pCg41DQ4vSi0GAAAH9UlEQVR4nO2c64KaRhSAR4WtsmIjKAqCiuItru4mTdO0Tfv+j9U5ZxgursYIgmjP92MNiJP5nJkzFxkYIwiCIAiCIAiCIAiCIAiCIAiCIAiCIAiCIAiCIAiCIAiCIAiCIAiCIAiCIAiCIAiCIK7KLz/BLfPXGQWNi9C1xKc/vn16/lk+f/jtBn6uWbuYZvzxN0Wp/zSKojx/Kdlv2LjcL2n4dIFfKPn8e5mCVha/hOGXSwVR8kN5gl42wcjwWwY/UHwrS3CUUTAy/JqlCEssxWFWwcjwLaNhXSmnLWYKMinDi+NMxHMZ/eMqs+AVDJU/ihf0sxfhFQzrz98KN8zeCq9iqHwv3FC7sWHxPUZwY8PPRQvmaYbXMKw/F23YyiF4FcP6r2SYk4X+6IbMeHhD++EN5w9vOHt4wzzV9E4Mpw9vmHkN434Ms3cYd2M4yTo2vRtDNnEe3ZCx5sMbsrb66IaM9bWLm6N9D4YLL2I0ap6NqnrgzQeDccj6HgwzzA/t9mEiuQyLXmzLNAM2DhwfcRVDSyVS6ZWorKsY6uJKhoUvemdep1GvY1j/s7KGyYqa43eLwitpnrW2wTUM/6qyoePnNlSeChfMtV46z2uoPJcwZMtjGOQ1rJdxW02uNe9JLkOlFMF8hjLWZDJUPn0sQzCfoZfdUKmX8Pt2fkPZJZ4xVN7z6cvfJQkW/9uTUn/6cMCX7/+UpZfX8FwZKuBXTms7TaHtUFGeCh92niWX4S5M5Kghb21P/97UTZDLcBYmcsyQ+926fgryGBoykXeGSiXqpyCP4UomcmhYmfIDchiaS5lI2rAi7U+Sw9CNEokNK9E/pMluGMSJJAyr0/4kmQ3NxFJUaFiV/iFNVkNnlkhEGFYqvsRkNAw2yUS4YZX6hzTZDFfpRJ6UipYfkMHQtBYHiTxVsf1JWoZ6CYHmdt4n8rWq5UcQBEEQxP+Pm+4jLxzfDRxHbY5bt85IUczkvVD65PzFd0l0115w/tq7pI1zouZWr01vnZWCgC2IZo+xyer8tfcJ3D7rJE8sdivrZRoddl7me9bq9Xo+Y/xvD84t8dDnf5f8gh2u2kzm7s4Pr4B3WswfjDuJZNyxmDvP5u7Yj5IqAdxGqo6jm0fCm/cDEXbWeIu0B9syBsyHcARnoem+slf44IbHqbZMpubCXaobrPlN3I/T6GMyA3zuBn6RYofHDv6UZNgO44wtvu8tNktQgUXtQWL9op027LIuZNrAd5KbUfUNbi+WzxLZs2jHuMMSca08w/gu7xETG6GC7hLM4B5gPN/QTxuG7wiFRtKQp4Plb/EaioeqY8onODTKNWSu3IU4ELsvoLlAllsi4wPfX502NDqb6Z5BgRldf68mDDuiQtjixeky1vcX4Kbu/a5RqiFvbRpKGmGhRUUTiDIQjee4IVRCtoF/QcOd6JEh9K6iKixN4cvEJiQdVltnJRvyAApfakNkVbLDR0pg1l5OGRpxxvFfRmQINzK00XAitUR9FR/RSzQUd/5AA2n4C8hMty/YYJ3FblL7sSE41CAytczI0I4MN2AzxQv7tfB3uVaJZTipGUNez6C4eKwzw/+4NdlMFiim83g/FpUWv3hepjMdq2dsiJUblOzaEUP8Qrb8sMd6eli62xINMZSK0G6JCBNMJ2ORgT6eNpywWWJWdc3Db8NPGooQKbqM94aYWkOzG2G3qYd9SzmCk7jdYYccd2xjln6qRDu1qZZ3LQnDRWKvxntD2SFxw15yk1U5hmwnN8sEOIpqye5R/MgrCkcTsTTxSCm4mea1Fo/3JuKbGUFlEGMaqJaD8DVMxoQLRZe/KtEQHtVmb+3RVB7uLc3W3Gg6PLZWXSYN2cL1mra3wiHdgkejaSIVbdRlU36ODzr5X97/Ra98JOt63kr86jjkF+4ZhLLi1c7SH67XmA+oWzkzNL1Cfq4PVi532tmKRpSHcc3eXydT1yXxKL7d+at/wFSXw5qKsYliJA8886E4aZhmLbFqNdRNHQJP2+qeTkfnA4lis3oZy46gv2DjwDEbqsezt+ahEuewULCJH4IhcGqiJ309leCrqp987yasZcmZ2z2fsOPtTxMuFqBY46ihLjrJU2xOv3ULOoluWYZQJ7or+LihWkveKFV1koZhDF1uoxI6brg3zOa7hCoLGq7XA4wzQ3lSvnvckDGf3Q+dcEw1qx2reqFhN2xakWHMPlo9n81YJZGGOCtaMcsxHJhFuvzVFYYznCehfGg44m/iwE5sfYdx+wLX7UZt/s4PYtBNkIa43vKCC4yQYxh3W8IwXNqREwhNTEPgawhXI7nSMpxHmO8L+eag4WolVm+mxwwl1qGhnGB54Sw3PqwUyViqsqOG1nQM/mbrwBBOGp3leiemz+qw36y4odM7agij1K6ItCnDgWzB4mqcIDerauhw1BV0AUcM8bIAz6cMX2rR4yS0WjjI6VTVcMERh6cMVZR6Z7gVn9KkWLuqhvGhF5aGFhtCbMQFpn7aEEe0YpDtwj+hYzSqb4iLKi8dfJmHkUYd2WEcSkca6CF0qz2yxBqXrnlOZSNNfLhPhFY/3VusDw3ltGSUfo521QzXaUNsXQJojtAh2PEh/lgoIib0+INYKVyLtGvV6/H3I07yRNdzdF03RjjetODNsao7Hh6+8kOuNuAvUzheWKreaOKka22b5rbfFRcQBEEQBEEQBEEQBEEQBEEQBEEQBEEQBEEQRMn8B3mSoHwTqH6mAAAAAElFTkSuQmCC;" parent="1" vertex="1">
          <mxGeometry x="15" y="278" width="101" height="101" as="geometry" />
        </mxCell>
        <mxCell id="8BaX_PmstEO3U_bqRlHM-14" style="edgeStyle=orthogonalEdgeStyle;rounded=0;orthogonalLoop=1;jettySize=auto;html=1;" parent="1" source="8BaX_PmstEO3U_bqRlHM-9" target="8BaX_PmstEO3U_bqRlHM-12" edge="1">
          <mxGeometry relative="1" as="geometry">
            <Array as="points">
              <mxPoint x="350" y="180" />
              <mxPoint x="350" y="180" />
            </Array>
          </mxGeometry>
        </mxCell>
        <mxCell id="8BaX_PmstEO3U_bqRlHM-9" value="Ingestion" style="sketch=0;outlineConnect=0;fontColor=#232F3E;gradientColor=none;strokeColor=#ffffff;fillColor=#232F3E;dashed=0;verticalLabelPosition=middle;verticalAlign=bottom;align=center;html=1;whiteSpace=wrap;fontSize=10;fontStyle=1;spacing=3;shape=mxgraph.aws4.productIcon;prIcon=mxgraph.aws4.s3;" parent="1" vertex="1">
          <mxGeometry x="246" y="138" width="80" height="100" as="geometry" />
        </mxCell>
        <mxCell id="8BaX_PmstEO3U_bqRlHM-13" style="edgeStyle=orthogonalEdgeStyle;rounded=0;orthogonalLoop=1;jettySize=auto;html=1;" parent="1" source="8BaX_PmstEO3U_bqRlHM-10" target="8BaX_PmstEO3U_bqRlHM-12" edge="1">
          <mxGeometry relative="1" as="geometry">
            <Array as="points">
              <mxPoint x="286" y="300" />
              <mxPoint x="410" y="300" />
            </Array>
          </mxGeometry>
        </mxCell>
        <mxCell id="8BaX_PmstEO3U_bqRlHM-15" style="edgeStyle=orthogonalEdgeStyle;rounded=0;orthogonalLoop=1;jettySize=auto;html=1;" parent="1" source="8BaX_PmstEO3U_bqRlHM-10" target="8BaX_PmstEO3U_bqRlHM-9" edge="1">
          <mxGeometry relative="1" as="geometry" />
        </mxCell>
        <mxCell id="8BaX_PmstEO3U_bqRlHM-10" value="AWS Lambda" style="sketch=0;outlineConnect=0;fontColor=#232F3E;gradientColor=none;strokeColor=#ffffff;fillColor=#232F3E;dashed=0;verticalLabelPosition=middle;verticalAlign=bottom;align=center;html=1;whiteSpace=wrap;fontSize=10;fontStyle=1;spacing=3;shape=mxgraph.aws4.productIcon;prIcon=mxgraph.aws4.lambda;" parent="1" vertex="1">
          <mxGeometry x="246" y="342" width="80" height="100" as="geometry" />
        </mxCell>
        <mxCell id="8BaX_PmstEO3U_bqRlHM-17" style="edgeStyle=orthogonalEdgeStyle;rounded=0;orthogonalLoop=1;jettySize=auto;html=1;" parent="1" source="8BaX_PmstEO3U_bqRlHM-12" target="8BaX_PmstEO3U_bqRlHM-16" edge="1">
          <mxGeometry relative="1" as="geometry">
            <Array as="points">
              <mxPoint x="470" y="180" />
              <mxPoint x="470" y="180" />
            </Array>
          </mxGeometry>
        </mxCell>
        <mxCell id="8BaX_PmstEO3U_bqRlHM-12" value="Amazon EMR" style="sketch=0;outlineConnect=0;fontColor=#232F3E;gradientColor=none;strokeColor=#ffffff;fillColor=#232F3E;dashed=0;verticalLabelPosition=middle;verticalAlign=bottom;align=center;html=1;whiteSpace=wrap;fontSize=10;fontStyle=1;spacing=3;shape=mxgraph.aws4.productIcon;prIcon=mxgraph.aws4.emr;" parent="1" vertex="1">
          <mxGeometry x="370" y="138" width="80" height="100" as="geometry" />
        </mxCell>
        <mxCell id="8McWWTVjcUAGM2Oe49yg-18" style="edgeStyle=orthogonalEdgeStyle;rounded=0;orthogonalLoop=1;jettySize=auto;html=1;" parent="1" source="8BaX_PmstEO3U_bqRlHM-16" target="8BaX_PmstEO3U_bqRlHM-23" edge="1">
          <mxGeometry relative="1" as="geometry">
            <Array as="points">
              <mxPoint x="590" y="180" />
              <mxPoint x="590" y="180" />
            </Array>
          </mxGeometry>
        </mxCell>
        <mxCell id="8BaX_PmstEO3U_bqRlHM-16" value="Raw" style="sketch=0;outlineConnect=0;fontColor=#232F3E;gradientColor=none;strokeColor=#ffffff;fillColor=#232F3E;dashed=0;verticalLabelPosition=middle;verticalAlign=bottom;align=center;html=1;whiteSpace=wrap;fontSize=10;fontStyle=1;spacing=3;shape=mxgraph.aws4.productIcon;prIcon=mxgraph.aws4.s3;" parent="1" vertex="1">
          <mxGeometry x="494" y="138" width="80" height="100" as="geometry" />
        </mxCell>
        <mxCell id="8BaX_PmstEO3U_bqRlHM-46" style="edgeStyle=orthogonalEdgeStyle;rounded=0;orthogonalLoop=1;jettySize=auto;html=1;" parent="1" source="8BaX_PmstEO3U_bqRlHM-20" target="8BaX_PmstEO3U_bqRlHM-43" edge="1">
          <mxGeometry relative="1" as="geometry">
            <Array as="points">
              <mxPoint x="1040" y="180" />
              <mxPoint x="1040" y="180" />
            </Array>
          </mxGeometry>
        </mxCell>
        <mxCell id="8BaX_PmstEO3U_bqRlHM-20" value="Amazon Athena" style="sketch=0;outlineConnect=0;fontColor=#232F3E;gradientColor=none;strokeColor=#ffffff;fillColor=#232F3E;dashed=0;verticalLabelPosition=middle;verticalAlign=bottom;align=center;html=1;whiteSpace=wrap;fontSize=10;fontStyle=1;spacing=3;shape=mxgraph.aws4.productIcon;prIcon=mxgraph.aws4.athena;" parent="1" vertex="1">
          <mxGeometry x="1069" y="138" width="80" height="100" as="geometry" />
        </mxCell>
        <mxCell id="8BaX_PmstEO3U_bqRlHM-28" style="edgeStyle=orthogonalEdgeStyle;rounded=0;orthogonalLoop=1;jettySize=auto;html=1;" parent="1" source="8BaX_PmstEO3U_bqRlHM-23" target="8BaX_PmstEO3U_bqRlHM-18" edge="1">
          <mxGeometry relative="1" as="geometry">
            <Array as="points">
              <mxPoint x="700" y="180" />
              <mxPoint x="700" y="180" />
            </Array>
          </mxGeometry>
        </mxCell>
        <mxCell id="8BaX_PmstEO3U_bqRlHM-23" value="Amazon EMR" style="sketch=0;outlineConnect=0;fontColor=#232F3E;gradientColor=none;strokeColor=#ffffff;fillColor=#232F3E;dashed=0;verticalLabelPosition=middle;verticalAlign=bottom;align=center;html=1;whiteSpace=wrap;fontSize=10;fontStyle=1;spacing=3;shape=mxgraph.aws4.productIcon;prIcon=mxgraph.aws4.emr;" parent="1" vertex="1">
          <mxGeometry x="606" y="139" width="80" height="100" as="geometry" />
        </mxCell>
        <mxCell id="8McWWTVjcUAGM2Oe49yg-15" style="edgeStyle=orthogonalEdgeStyle;rounded=0;orthogonalLoop=1;jettySize=auto;html=1;" parent="1" source="8BaX_PmstEO3U_bqRlHM-25" target="8BaX_PmstEO3U_bqRlHM-16" edge="1">
          <mxGeometry relative="1" as="geometry">
            <Array as="points">
              <mxPoint x="534" y="290" />
              <mxPoint x="534" y="290" />
            </Array>
          </mxGeometry>
        </mxCell>
        <mxCell id="8McWWTVjcUAGM2Oe49yg-16" style="edgeStyle=orthogonalEdgeStyle;rounded=0;orthogonalLoop=1;jettySize=auto;html=1;" parent="1" edge="1">
          <mxGeometry relative="1" as="geometry">
            <mxPoint x="534" y="342.00000000000006" as="sourcePoint" />
            <mxPoint x="637.9999999999999" y="239.00000000000006" as="targetPoint" />
            <Array as="points">
              <mxPoint x="534" y="300" />
              <mxPoint x="638" y="300" />
            </Array>
          </mxGeometry>
        </mxCell>
        <mxCell id="8BaX_PmstEO3U_bqRlHM-25" value="AWS Lambda" style="sketch=0;outlineConnect=0;fontColor=#232F3E;gradientColor=none;strokeColor=#ffffff;fillColor=#232F3E;dashed=0;verticalLabelPosition=middle;verticalAlign=bottom;align=center;html=1;whiteSpace=wrap;fontSize=10;fontStyle=1;spacing=3;shape=mxgraph.aws4.productIcon;prIcon=mxgraph.aws4.lambda;" parent="1" vertex="1">
          <mxGeometry x="499" y="342" width="80" height="100" as="geometry" />
        </mxCell>
        <mxCell id="8BaX_PmstEO3U_bqRlHM-32" style="edgeStyle=orthogonalEdgeStyle;rounded=0;orthogonalLoop=1;jettySize=auto;html=1;" parent="1" source="8BaX_PmstEO3U_bqRlHM-29" target="8BaX_PmstEO3U_bqRlHM-20" edge="1">
          <mxGeometry relative="1" as="geometry">
            <Array as="points">
              <mxPoint x="1170" y="180" />
              <mxPoint x="1170" y="180" />
            </Array>
          </mxGeometry>
        </mxCell>
        <mxCell id="8BaX_PmstEO3U_bqRlHM-29" value="" style="shape=image;verticalLabelPosition=bottom;labelBackgroundColor=default;verticalAlign=top;imageAspect=0;image=https://static-00.iconduck.com/assets.00/power-bi-icon-1536x2048-0xah5g2o.png;" parent="1" vertex="1">
          <mxGeometry x="1194" y="138" width="80" height="100" as="geometry" />
        </mxCell>
        <mxCell id="8BaX_PmstEO3U_bqRlHM-34" value="" style="outlineConnect=0;dashed=0;verticalLabelPosition=bottom;verticalAlign=top;align=center;html=1;shape=mxgraph.aws3.iam;fillColor=#759C3E;gradientColor=none;" parent="1" vertex="1">
          <mxGeometry x="240" y="497" width="42" height="81" as="geometry" />
        </mxCell>
        <mxCell id="8BaX_PmstEO3U_bqRlHM-37" value="" style="endArrow=none;html=1;rounded=0;strokeColor=#AAB7B8;" parent="1" edge="1">
          <mxGeometry width="50" height="50" relative="1" as="geometry">
            <mxPoint x="210" y="453" as="sourcePoint" />
            <mxPoint x="1290" y="453" as="targetPoint" />
          </mxGeometry>
        </mxCell>
        <mxCell id="8BaX_PmstEO3U_bqRlHM-43" value="Refined" style="sketch=0;outlineConnect=0;fontColor=#232F3E;gradientColor=none;strokeColor=#ffffff;fillColor=#232F3E;dashed=0;verticalLabelPosition=middle;verticalAlign=bottom;align=center;html=1;whiteSpace=wrap;fontSize=10;fontStyle=1;spacing=3;shape=mxgraph.aws4.productIcon;prIcon=mxgraph.aws4.s3;" parent="1" vertex="1">
          <mxGeometry x="929" y="138" width="80" height="100" as="geometry" />
        </mxCell>
        <mxCell id="8BaX_PmstEO3U_bqRlHM-49" value="" style="shape=image;verticalLabelPosition=bottom;labelBackgroundColor=default;verticalAlign=top;aspect=fixed;imageAspect=0;image=https://upload.wikimedia.org/wikipedia/commons/a/aa/Team_icon.png;" parent="1" vertex="1">
          <mxGeometry x="1173.75" y="288.25" width="113.25" height="113.25" as="geometry" />
        </mxCell>
        <mxCell id="8BaX_PmstEO3U_bqRlHM-56" value="" style="endArrow=classic;html=1;rounded=0;" parent="1" edge="1">
          <mxGeometry width="50" height="50" relative="1" as="geometry">
            <mxPoint x="1233.41" y="318" as="sourcePoint" />
            <mxPoint x="1233.41" y="248" as="targetPoint" />
          </mxGeometry>
        </mxCell>
        <mxCell id="8BaX_PmstEO3U_bqRlHM-62" style="edgeStyle=orthogonalEdgeStyle;rounded=0;orthogonalLoop=1;jettySize=auto;html=1;strokeColor=#8C4FFF;" parent="1" source="8BaX_PmstEO3U_bqRlHM-57" target="8BaX_PmstEO3U_bqRlHM-18" edge="1">
          <mxGeometry relative="1" as="geometry">
            <Array as="points">
              <mxPoint x="756" y="98" />
            </Array>
          </mxGeometry>
        </mxCell>
        <mxCell id="8BaX_PmstEO3U_bqRlHM-63" style="edgeStyle=orthogonalEdgeStyle;rounded=0;orthogonalLoop=1;jettySize=auto;html=1;strokeColor=#8C4FFF;" parent="1" source="8BaX_PmstEO3U_bqRlHM-57" target="8BaX_PmstEO3U_bqRlHM-43" edge="1">
          <mxGeometry relative="1" as="geometry" />
        </mxCell>
        <mxCell id="8McWWTVjcUAGM2Oe49yg-6" style="edgeStyle=orthogonalEdgeStyle;rounded=0;orthogonalLoop=1;jettySize=auto;html=1;strokeColor=#8C4FFF;" parent="1" source="8BaX_PmstEO3U_bqRlHM-57" target="8BaX_PmstEO3U_bqRlHM-16" edge="1">
          <mxGeometry relative="1" as="geometry" />
        </mxCell>
        <mxCell id="8BaX_PmstEO3U_bqRlHM-57" value="" style="sketch=0;outlineConnect=0;fontColor=#232F3E;gradientColor=none;fillColor=#8C4FFF;strokeColor=none;dashed=0;verticalLabelPosition=bottom;verticalAlign=top;align=center;html=1;fontSize=12;fontStyle=0;aspect=fixed;pointerEvents=1;shape=mxgraph.aws4.glue_crawlers;" parent="1" vertex="1">
          <mxGeometry x="581" y="64" width="68" height="68" as="geometry" />
        </mxCell>
        <mxCell id="8McWWTVjcUAGM2Oe49yg-9" value="&lt;font style=&quot;font-size: 16px;&quot;&gt;&lt;b&gt;Data Lake&lt;/b&gt;&lt;/font&gt;" style="text;html=1;align=center;verticalAlign=middle;whiteSpace=wrap;rounded=0;" parent="1" vertex="1">
          <mxGeometry x="641" y="40" width="230" height="30" as="geometry" />
        </mxCell>
        <mxCell id="8McWWTVjcUAGM2Oe49yg-20" style="edgeStyle=orthogonalEdgeStyle;rounded=0;orthogonalLoop=1;jettySize=auto;html=1;" parent="1" source="8McWWTVjcUAGM2Oe49yg-10" target="8BaX_PmstEO3U_bqRlHM-43" edge="1">
          <mxGeometry relative="1" as="geometry">
            <Array as="points">
              <mxPoint x="920" y="180" />
              <mxPoint x="920" y="180" />
            </Array>
          </mxGeometry>
        </mxCell>
        <mxCell id="8McWWTVjcUAGM2Oe49yg-10" value="Amazon EMR" style="sketch=0;outlineConnect=0;fontColor=#232F3E;gradientColor=none;strokeColor=#ffffff;fillColor=#232F3E;dashed=0;verticalLabelPosition=middle;verticalAlign=bottom;align=center;html=1;whiteSpace=wrap;fontSize=10;fontStyle=1;spacing=3;shape=mxgraph.aws4.productIcon;prIcon=mxgraph.aws4.emr;" parent="1" vertex="1">
          <mxGeometry x="822" y="139" width="80" height="100" as="geometry" />
        </mxCell>
        <mxCell id="8McWWTVjcUAGM2Oe49yg-14" style="edgeStyle=orthogonalEdgeStyle;rounded=0;orthogonalLoop=1;jettySize=auto;html=1;" parent="1" source="8BaX_PmstEO3U_bqRlHM-18" target="8McWWTVjcUAGM2Oe49yg-10" edge="1">
          <mxGeometry relative="1" as="geometry">
            <Array as="points">
              <mxPoint x="810" y="180" />
              <mxPoint x="810" y="180" />
            </Array>
          </mxGeometry>
        </mxCell>
        <mxCell id="8BaX_PmstEO3U_bqRlHM-18" value="Trusted" style="sketch=0;outlineConnect=0;fontColor=#232F3E;gradientColor=none;strokeColor=#ffffff;fillColor=#232F3E;dashed=0;verticalLabelPosition=middle;verticalAlign=bottom;align=center;html=1;whiteSpace=wrap;fontSize=10;fontStyle=1;spacing=3;shape=mxgraph.aws4.productIcon;prIcon=mxgraph.aws4.s3;" parent="1" vertex="1">
          <mxGeometry x="716" y="138" width="80" height="100" as="geometry" />
        </mxCell>
        <mxCell id="8McWWTVjcUAGM2Oe49yg-22" style="edgeStyle=orthogonalEdgeStyle;rounded=0;orthogonalLoop=1;jettySize=auto;html=1;" parent="1" source="8McWWTVjcUAGM2Oe49yg-21" target="8BaX_PmstEO3U_bqRlHM-18" edge="1">
          <mxGeometry relative="1" as="geometry" />
        </mxCell>
        <mxCell id="8McWWTVjcUAGM2Oe49yg-23" style="edgeStyle=orthogonalEdgeStyle;rounded=0;orthogonalLoop=1;jettySize=auto;html=1;" parent="1" source="8McWWTVjcUAGM2Oe49yg-21" target="8McWWTVjcUAGM2Oe49yg-10" edge="1">
          <mxGeometry relative="1" as="geometry">
            <Array as="points">
              <mxPoint x="756" y="300" />
              <mxPoint x="862" y="300" />
            </Array>
          </mxGeometry>
        </mxCell>
        <mxCell id="8McWWTVjcUAGM2Oe49yg-21" value="AWS Lambda" style="sketch=0;outlineConnect=0;fontColor=#232F3E;gradientColor=none;strokeColor=#ffffff;fillColor=#232F3E;dashed=0;verticalLabelPosition=middle;verticalAlign=bottom;align=center;html=1;whiteSpace=wrap;fontSize=10;fontStyle=1;spacing=3;shape=mxgraph.aws4.productIcon;prIcon=mxgraph.aws4.lambda;" parent="1" vertex="1">
          <mxGeometry x="716" y="342" width="80" height="100" as="geometry" />
        </mxCell>
        <mxCell id="u8RxXQ1Lq5YVPgC5Vari-1" value="&lt;b&gt;&lt;font style=&quot;font-size: 16px;&quot;&gt;Pipeline para ingestÃ£o de dados&lt;br&gt;&lt;div style=&quot;&quot;&gt;&lt;b style=&quot;background-color: initial; font-size: 12px;&quot;&gt;&lt;font style=&quot;font-size: 16px;&quot;&gt;Data Lake&lt;/font&gt;&lt;/b&gt;&lt;/div&gt;&lt;div style=&quot;&quot;&gt;&lt;b style=&quot;background-color: initial; font-size: 12px;&quot;&gt;&lt;font style=&quot;font-size: 16px;&quot;&gt;(Event Driven)&lt;/font&gt;&lt;/b&gt;&lt;/div&gt;&lt;/font&gt;&lt;/b&gt;" style="rounded=0;whiteSpace=wrap;html=1;align=center;" parent="1" vertex="1">
          <mxGeometry x="1450" y="90" width="250" height="70" as="geometry" />
        </mxCell>
        <mxCell id="u8RxXQ1Lq5YVPgC5Vari-2" value="&lt;ol style=&quot;font-size: 14px;&quot;&gt;&lt;li&gt;Dados sÃ£o obtidos via API e armazenados em um bucket de ingestÃ£o (arquivos nesse bucket sÃ£o apagados na Ãºltima etapa do pipeline).&lt;/li&gt;&lt;li&gt;A Lambda function Ã© acionada apÃ³s a chegada de um arquivo e inicia-se um cluster EMR para leitura dos dados, os dados posteriormente sÃ£o enviados para a camada Raw (bucket s3) sem qualquer modificaÃ§Ã£o.&lt;/li&gt;&lt;li&gt;ApÃ³s a chegada do arquivo na camada Raw, uma lambda Ã© responsÃ¡vel por acionar o EMR e inserir um step job (script Python) para o tratamento dos dados (nessa etapa, sÃ£o realizadas correÃ§Ãµes e transformaÃ§Ãµes nos dados), em seguida os arquivos sÃ£o convertidos para o formato &lt;b&gt;Parquet &lt;/b&gt;e armazenados no bucket Trusted.&lt;/li&gt;&lt;li&gt;No bucket Trusted, os dados presentes jÃ¡ podem ser utilizados e hÃ¡ garantia quanto a qualidade dos dados.&lt;/li&gt;&lt;li&gt;ApÃ³s a disponibilizaÃ§Ã£o dos dados na camada trusted, outra lambda Ã© responsÃ¡vel por acionar um EMR, nessa etapa, sÃ£o realizadas novas transformaÃ§Ãµes, para que esses dados possam ser utilizados para outras finalidades (por exemplo, a criaÃ§Ã£o de relatÃ³rios e indicadores especÃ­ficos para outras Ã¡reas da empresa, e tabelas para utilizaÃ§Ã£o em modelos de machine learning (ABT).&lt;/li&gt;&lt;li&gt;Glue Crawler Ã© utilizado para mapear as tabelas e metadados no Data Lake.&lt;/li&gt;&lt;li&gt;O amazon Athena realiza as consultas SQL para que os dados presentes nos buckets Trusted e Refined possam ser consumidos por outras pessoas e Ã¡reas (InteligÃªncia de Dados, Planejamento, etc.)&lt;/li&gt;&lt;li&gt;IAM Ã© responsÃ¡vel pelo controle e gerenciamento de acesso aos serviÃ§os.&lt;/li&gt;&lt;/ol&gt;" style="rounded=0;whiteSpace=wrap;html=1;align=left;fillColor=#d5e8d4;strokeColor=#82b366;" parent="1" vertex="1">
          <mxGeometry x="1305" y="58" width="475" height="534" as="geometry" />
        </mxCell>
        <mxCell id="u8RxXQ1Lq5YVPgC5Vari-3" value="&lt;b style=&quot;background-color: initial;&quot;&gt;&lt;font style=&quot;font-size: 16px;&quot;&gt;Data Lake&lt;/font&gt;&lt;/b&gt;" style="rounded=0;whiteSpace=wrap;html=1;align=center;fillColor=#d5e8d4;strokeColor=#82b366;" parent="1" vertex="1">
          <mxGeometry x="1500.25" y="3" width="102.5" height="20" as="geometry" />
        </mxCell>
        <mxCell id="u8RxXQ1Lq5YVPgC5Vari-7" value="1" style="ellipse;whiteSpace=wrap;html=1;aspect=fixed;strokeWidth=2;fontFamily=Tahoma;spacingBottom=4;spacingRight=2;strokeColor=#3A5431;fillColor=#6d8764;fontColor=#ffffff;" parent="1" vertex="1">
          <mxGeometry x="220" y="140" width="20" height="20" as="geometry" />
        </mxCell>
        <mxCell id="u8RxXQ1Lq5YVPgC5Vari-8" value="2" style="ellipse;whiteSpace=wrap;html=1;aspect=fixed;strokeWidth=2;fontFamily=Tahoma;spacingBottom=4;spacingRight=2;strokeColor=#3A5431;fillColor=#6d8764;fontColor=#ffffff;" parent="1" vertex="1">
          <mxGeometry x="300" y="314.5" width="20" height="20" as="geometry" />
        </mxCell>
        <mxCell id="u8RxXQ1Lq5YVPgC5Vari-9" value="3" style="ellipse;whiteSpace=wrap;html=1;aspect=fixed;strokeWidth=2;fontFamily=Tahoma;spacingBottom=4;spacingRight=2;strokeColor=#3A5431;fillColor=#6d8764;fontColor=#ffffff;" parent="1" vertex="1">
          <mxGeometry x="548" y="312" width="20" height="20" as="geometry" />
        </mxCell>
        <mxCell id="u8RxXQ1Lq5YVPgC5Vari-10" value="5" style="ellipse;whiteSpace=wrap;html=1;aspect=fixed;strokeWidth=2;fontFamily=Tahoma;spacingBottom=4;spacingRight=2;strokeColor=#3A5431;fillColor=#6d8764;fontColor=#ffffff;" parent="1" vertex="1">
          <mxGeometry x="776" y="312" width="20" height="20" as="geometry" />
        </mxCell>
        <mxCell id="u8RxXQ1Lq5YVPgC5Vari-11" value="6" style="ellipse;whiteSpace=wrap;html=1;aspect=fixed;strokeWidth=2;fontFamily=Tahoma;spacingBottom=4;spacingRight=2;strokeColor=#3A5431;fillColor=#6d8764;fontColor=#ffffff;" parent="1" vertex="1">
          <mxGeometry x="606" y="42" width="20" height="20" as="geometry" />
        </mxCell>
        <mxCell id="u8RxXQ1Lq5YVPgC5Vari-12" value="7" style="ellipse;whiteSpace=wrap;html=1;aspect=fixed;strokeWidth=2;fontFamily=Tahoma;spacingBottom=4;spacingRight=2;strokeColor=#3A5431;fillColor=#6d8764;fontColor=#ffffff;" parent="1" vertex="1">
          <mxGeometry x="1099" y="112" width="20" height="20" as="geometry" />
        </mxCell>
        <mxCell id="u8RxXQ1Lq5YVPgC5Vari-14" value="8" style="ellipse;whiteSpace=wrap;html=1;aspect=fixed;strokeWidth=2;fontFamily=Tahoma;spacingBottom=4;spacingRight=2;strokeColor=#3A5431;fillColor=#6d8764;fontColor=#ffffff;" parent="1" vertex="1">
          <mxGeometry x="251" y="470" width="20" height="20" as="geometry" />
        </mxCell>
        <mxCell id="u8RxXQ1Lq5YVPgC5Vari-15" value="&lt;span style=&quot;background-color: initial;&quot;&gt;&lt;font style=&quot;font-size: 16px;&quot;&gt;&lt;b&gt;Event Driven Pipeline&lt;/b&gt;&lt;/font&gt;&lt;/span&gt;" style="rounded=0;whiteSpace=wrap;html=1;align=center;fillColor=#d5e8d4;strokeColor=#82b366;" parent="1" vertex="1">
          <mxGeometry x="1305" y="31" width="475" height="22" as="geometry" />
        </mxCell>
        <mxCell id="u8RxXQ1Lq5YVPgC5Vari-18" value="4" style="ellipse;whiteSpace=wrap;html=1;aspect=fixed;strokeWidth=2;fontFamily=Tahoma;spacingBottom=4;spacingRight=2;strokeColor=#3A5431;fillColor=#6d8764;fontColor=#ffffff;" parent="1" vertex="1">
          <mxGeometry x="770" y="115" width="20" height="20" as="geometry" />
        </mxCell>
      </root>
    </mxGraphModel>
  </diagram>
</mxfile>
